<?xml version="1.0" encoding="utf-8"?>
<!-- Generator: Adobe Illustrator 23.0.1, SVG Export Plug-In . SVG Version: 6.00 Build 0)  -->
<svg version="1.1" id="Réteg_1" xmlns="http://www.w3.org/2000/svg" xmlns:xlink="http://www.w3.org/1999/xlink" x="0px" y="0px"
	 viewBox="0 0 1920 1080" style="enable-background:new 0 0 1920 1080;" xml:space="preserve">
<style type="text/css">
	.st0{fill:#FFFFFF;}
</style>
<g>
	<path d="M1221.9,207c7.8,0,14.1,6.3,14.1,14.1v468.8c0,7.8-6.3,14.1-14.1,14.1H613.1c-7.8,0-14.1-6.3-14.1-14.1V221.1
		c0-7.8,6.3-14.1,14.1-14.1H1221.9 M1221.9,177H613.1c-24.3,0-44.1,19.7-44.1,44.1v468.8c0,24.3,19.7,44.1,44.1,44.1h608.8
		c24.3,0,44.1-19.7,44.1-44.1V221.1C1266,196.7,1246.3,177,1221.9,177L1221.9,177z"/>
</g>
<g>
	<polygon points="803.9,296.7 669.2,431.4 693.3,455.5 828,320.8 803.9,296.7 	"/>
</g>
<g>
	<polygon points="693.3,296.7 669.2,320.8 803.9,455.5 828,431.4 693.3,296.7 	"/>
</g>
<g>
	<polygon points="1100.9,296.7 966.2,431.4 990.3,455.5 1125,320.8 1100.9,296.7 	"/>
</g>
<g>
	<polygon points="990.3,296.7 966.2,320.8 1100.9,455.5 1125,431.4 990.3,296.7 	"/>
</g>
<g>
	<polygon points="1069,517 749,517 749,553 1069,553 1069,517 	"/>
</g>
<g>
	<path d="M992,633c-21.5,0-39-17.5-39-39v-39h78v39C1031,615.5,1013.5,633,992,633z"/>
	<path d="M1016,570v24c0,13.2-10.8,24-24,24c-13.2,0-24-10.8-24-24v-24H1016 M1046,540H938v54c0,29.8,24.2,54,54,54h0
		c29.8,0,54-24.2,54-54V540L1046,540z"/>
</g>
<g>
	<path class="st0" d="M994.8,612h-5.6c-0.7,0-1.2-0.5-1.2-1.2v-68.6c0-0.7,0.5-1.2,1.2-1.2h5.6c0.7,0,1.2,0.5,1.2,1.2v68.6
		C996,611.5,995.5,612,994.8,612z"/>
	<path class="st0" d="M994.8,541h-5.6c-0.7,0-1.2,0.5-1.2,1.2v68.6c0,0.7,0.5,1.2,1.2,1.2h5.6c0.7,0,1.2-0.5,1.2-1.2v-68.6
		C996,541.5,995.5,541,994.8,541L994.8,541z"/>
</g>
</svg>
